<?xml version="1.0" encoding="UTF-8" standalone="no"?>
<!-- Generator: Adobe Illustrator 16.0.0, SVG Export Plug-In . SVG Version: 6.00 Build 0)  -->

<svg xmlns:dc="http://purl.org/dc/elements/1.1/" xmlns:cc="http://creativecommons.org/ns#" xmlns:rdf="http://www.w3.org/1999/02/22-rdf-syntax-ns#" xmlns:svg="http://www.w3.org/2000/svg" xmlns="http://www.w3.org/2000/svg" xmlns:sodipodi="http://sodipodi.sourceforge.net/DTD/sodipodi-0.dtd" xmlns:inkscape="http://www.inkscape.org/namespaces/inkscape" version="1.1" id="Layer_1" x="0px" y="0px" width="700.05035" height="650.28357" viewBox="0 0 700.05035 650.28358" enable-background="new 0 0 700 650.206" xml:space="preserve" inkscape:version="0.48.5 r10040" sodipodi:docname="Warner_W.svg"><metadata id="metadata8495"><rdf:RDF><cc:Work rdf:about=""><dc:format>image/svg+xml</dc:format><dc:type rdf:resource="http://purl.org/dc/dcmitype/StillImage" /><dc:title></dc:title></cc:Work></rdf:RDF></metadata><defs id="defs8493" /><sodipodi:namedview pagecolor="#ffffff" bordercolor="#666666" borderopacity="1" objecttolerance="10" gridtolerance="10" guidetolerance="10" inkscape:pageopacity="0" inkscape:pageshadow="2" inkscape:window-width="1920" inkscape:window-height="1018" id="namedview8491" showgrid="false" inkscape:zoom="0.51330564" inkscape:cx="350.02998" inkscape:cy="332.45481" inkscape:window-x="-8" inkscape:window-y="-8" inkscape:window-maximized="1" inkscape:current-layer="Layer_1" fit-margin-top="0" fit-margin-left="0" fit-margin-right="0" fit-margin-bottom="0" />
<path d="M 154.5676,27.425414 C 106.69766,46.536852 69.469197,78.11505 42.886305,122.16549 15.219256,168.67197 0.93697094,235.7187 0.04136337,323.28811 -0.83078634,408.56365 12.089089,474.7383 38.799184,521.80093 c 25.676389,44.58392 62.424086,76.91847 110.251116,97.00965 48.35404,20.09256 114.11212,30.56656 197.26979,31.41705 84.39158,0.86312 150.87717,-8.25732 199.45405,-27.35852 47.87398,-19.11241 85.28047,-50.68864 112.21735,-94.73446 27.12124,-45.45303 41.13022,-111.35263 42.01321,-197.68812 0.90829,-88.80936 -11.73727,-156.12565 -37.925,-201.94986 C 636.04935,83.908128 599.29548,51.573913 551.82242,31.487366 503.64639,11.393621 437.35967,0.91772728 352.96809,0.05461936 269.63245,-0.79768883 203.5005,8.3248437 154.5676,27.425414 z" id="path3083" style="fill:#0166b3;fill-opacity:1" /><path d="m 160.22381,179.69515 c 33.33452,-13.24311 71.17106,3.78755 84.83683,38.18595 l 79.85171,200.99651 c 13.66576,34.39837 -2.16811,72.75116 -35.50262,85.99428 -33.33452,13.2431 -71.17288,-3.78686 -84.83863,-38.18523 l -79.85171,-200.9965 c -13.66575,-34.39839 2.1699,-72.75191 35.50442,-85.99501 z" id="path3081" style="fill:white" /><path d="m 330.07343,181.88379 c 33.33452,-13.24311 71.17179,3.78939 84.83754,38.18776 l 79.3426,199.71502 c 13.66576,34.39838 -2.1681,72.75118 -35.50261,85.99428 -33.33451,13.24311 -71.17106,-3.78757 -84.83682,-38.18594 l -79.3426,-199.71502 c -13.66574,-34.39838 2.16739,-72.75301 35.50189,-85.9961 z" id="path3079" style="fill:white" /><path d="m 495.83858,181.2502 c 33.3345,-13.24311 71.17106,3.78757 84.83681,38.18595 l 18.81889,47.36942 c 13.66575,34.39838 -2.1681,72.75119 -35.50261,85.99429 -33.3345,13.2431 -71.17288,-3.78685 -84.83865,-38.18523 L 460.33415,267.2452 c -13.66576,-34.39838 2.16992,-72.7519 35.50443,-85.995 z" id="path9053" style="fill:white" />
</svg>